<svg xmlns="http://www.w3.org/2000/svg" xmlns:xlink="http://www.w3.org/1999/xlink" version="1.1" id="Capa_1" x="0px" y="0px" viewBox="0 0 511.823 511.823" style="enable-background:new 0 0 511.823 511.823;" xml:space="preserve" width="300" height="300" xmlns:svgjs="http://svgjs.dev/svgjs"><g width="100%" height="100%" transform="matrix(1,0,0,1,0,0)"><g>
	<path style="stroke-linecap: round; stroke-linejoin: round; stroke-miterlimit: 10;" d="&#10;&#9;&#9;M365.958,191.109c-19.446,13.1-39.633,22.844-62.812,30.327c23.87-46.163,34.3-91.914,35.239-147.812l14.986,5.729&#10;&#9;&#9;c15.117,5.779,27.406-13.174,15.963-24.618l-42.841-42.841c-5.858-5.858-15.355-5.858-21.213,0L262.283,54.89&#10;&#9;&#9;c-11.436,11.436,0.83,30.38,15.945,24.625l15.155-5.771c-0.814,48.728-8.798,85.713-28.571,124.34&#10;&#9;&#9;c-15.754-49.49-40.709-89.199-79.531-129.363l14.699-6.569c14.776-6.603,10.064-28.695-6.12-28.695h-60.586&#10;&#9;&#9;c-8.284,0-15,6.716-15,15v60.806c0,16.173,22.069,20.895,28.687,6.138l6.612-14.745c8.455,8.748,16.077,17.294,22.961,25.839" fill="none" fill-opacity="1" stroke="#c85c00" stroke-opacity="1" data-original-stroke-color="#000000ff" stroke-width="15" data-original-stroke-width="15"/>
	<path style="stroke-linecap: round; stroke-linejoin: round; stroke-miterlimit: 10;" d="&#10;&#9;&#9;M156.016,314.525c16.371-9.999,33.449-17.793,52.5-24.013c-23.367,45.852-33.984,92.305-34.97,147.729l-15.095-5.77&#10;&#9;&#9;c-15.117-5.779-27.406,13.174-15.963,24.618l42.841,42.841c5.858,5.858,15.355,5.858,21.213,0l42.996-42.996&#10;&#9;&#9;c11.436-11.436-0.83-30.38-15.945-24.625l-15.05,5.731c0.829-48.899,8.753-85.902,28.197-124.2&#10;&#9;&#9;c15.909,48.975,41.27,89.349,79.803,129.262l-14.702,6.57c-14.776,6.603-10.064,28.695,6.12,28.695h60.586c8.284,0,15-6.716,15-15&#10;&#9;&#9;V402.56c0-16.173-22.069-20.895-28.687-6.138l-6.613,14.746c-34.05-35.204-54.639-66.994-67.983-107.863&#10;&#9;&#9;c45.919,23.401,92.44,34.016,147.971,34.976l-5.768,15.089c-5.779,15.117,13.174,27.406,24.618,15.963l42.841-42.841&#10;&#9;&#9;c5.858-5.858,5.858-15.355,0-21.213l-42.996-42.996c-11.436-11.436-30.38,0.83-24.625,15.945l5.733,15.055&#10;&#9;&#9;c-49.011-0.806-86.068-8.721-124.421-28.189c49.577-15.762,89.336-40.746,129.559-79.641l6.493,14.528&#10;&#9;&#9;c6.603,14.776,28.695,10.064,28.695-6.12v-60.586c0-8.284-6.716-15-15-15H402.56c-16.173,0-20.895,22.069-6.138,28.687l14.918,6.69&#10;&#9;&#9;c-7.37,7.13-14.596,13.669-21.797,19.673" fill="none" fill-opacity="1" stroke="#c85c00" stroke-opacity="1" data-original-stroke-color="#000000ff" stroke-width="15" data-original-stroke-width="15"/>
	<path style="stroke-linecap: round; stroke-linejoin: round; stroke-miterlimit: 10;" d="&#10;&#9;&#9;M195.456,152.931c10.824,17.289,19.155,35.36,25.736,55.746c-46.096-23.835-91.783-34.269-147.57-35.233l5.731-14.991&#10;&#9;&#9;c5.779-15.117-13.174-27.406-24.618-15.963L11.893,185.33c-5.858,5.858-5.858,15.355,0,21.213L54.89,249.54&#10;&#9;&#9;c11.436,11.436,30.38-0.83,24.625-15.945l-5.769-15.15c48.617,0.837,85.548,8.83,124.119,28.579&#10;&#9;&#9;c-48.891,15.901-89.211,41.232-129.066,79.692l-6.647-14.873c-6.603-14.776-28.695-10.064-28.695,6.12v60.586&#10;&#9;&#9;c0,8.284,6.716,15,15,15h60.806c16.173,0,20.895-22.069,6.138-28.687l-14.573-6.535c10.745-10.382,21.173-19.511,31.641-27.563" fill="none" fill-opacity="1" stroke="#c85c00" stroke-opacity="1" data-original-stroke-color="#000000ff" stroke-width="15" data-original-stroke-width="15"/>
</g></g></svg>